<?xml version="1.0" standalone="no"?><!DOCTYPE svg PUBLIC "-//W3C//DTD SVG 1.1//EN" "http://www.w3.org/Graphics/SVG/1.1/DTD/svg11.dtd"><svg t="1618586068971" class="icon" viewBox="0 0 1024 1024" version="1.1" xmlns="http://www.w3.org/2000/svg" p-id="547" xmlns:xlink="http://www.w3.org/1999/xlink" width="200" height="200"><defs><style type="text/css"></style></defs><path d="M512 1024a512 512 0 1 1 512-512 512 512 0 0 1-512 512z m0-955.7376A443.7376 443.7376 0 1 0 955.7376 512 443.7376 443.7376 0 0 0 512 68.2624z m127.5136 426.752a129.28 129.28 0 0 0-51.2-89.4976l120.7552-217.6896a378.1504 378.1504 0 0 1 178.3936 310.8096zM512 579.1488a69.632 69.632 0 1 1 69.2096-69.632A69.4144 69.4144 0 0 1 512 579.1488z m-127.6672-84.1344l-247.744 3.6224A378.1248 378.1248 0 0 1 314.88 187.7248l120.8576 217.8688a129.2032 129.2032 0 0 0-51.456 89.4208z m179.0208 132.992l126.9888 214.0672a373.3376 373.3376 0 0 1-356.7488 0.1024l127.0912-214.2464a127.5264 127.5264 0 0 0 102.6176 0.0768z" fill="#F19A17" p-id="548"></path></svg>